# xmcd
#
# Track frame offsets:
#	150
#	14435
#	25427
#	40697
#	56605
#	73082
#	90517
#	104325
#	123962
#	137765
#
# Disc length: 2007 seconds
#
# Revision: 0
# Processed by: cddbd v1.5.2PL0 Copyright (c) Steve Scherf et al.
# Submitted via: audiograbber 1.83.01
#
DISCID=8307d50a
DTITLE=Collin Raye - All I can be
DYEAR=1991
DGENRE=Country
TTITLE0=All I can be (is a sweet memory)cs@zueter.com
TTITLE1=Every second
TTITLE2=Faithful old flame
TTITLE3='Scuse moi, my heart
TTITLE4=Any old stretch of blacktop
TTITLE5=Love, me
TTITLE6=Blue magic
TTITLE7=It could've been so good
TTITLE8=Sadly ever after
TTITLE9=If I were you
EXTD=seems correct to me (inexact list) !?!
EXTT0=
EXTT1=
EXTT2=
EXTT3=
EXTT4=
EXTT5=
EXTT6=
EXTT7=
EXTT8=
EXTT9=
PLAYORDER=
